<svg width="16" height="16" viewBox="0 0 16 16" fill="none" xmlns="http://www.w3.org/2000/svg">
<g clip-path="url(#clip0_239_2605)">
<rect width="16" height="16" fill="#252422"/>
<mask id="mask0_239_2605" style="mask-type:alpha" maskUnits="userSpaceOnUse" x="0" y="0" width="16" height="16">
<rect width="16" height="16" fill="#D9D9D9"/>
</mask>
<g mask="url(#mask0_239_2605)">
<g filter="url(#filter0_f_239_2605)">
<path d="M15 16.8969C11.1548 22.3527 10.2009 20.7939 8.07722 20.7939C5.95356 20.7939 5 20.6079 5 18.4557C5 16.3035 9.03111 13 11.1548 13C13.2784 13 15 13.7794 15 16.8969Z" fill="#FFFCF2"/>
<path d="M4 14.7479C4 18.5404 2.62399 18.8678 -0.443845 18.8678C-3.51168 18.8678 -6 19.9137 -6 16.1212C-6 12.3287 -6 7.8815 -2.66711 9.25488C0.665771 12.0015 4 10.6277 4 14.7479Z" fill="#6C645B"/>
<path d="M2.93402 5.45426C2.93402 6.80982 3.52762 8.39981 1.15377 7.90892C-0.484629 7.90892 -3 6.31913 -3 4.96357C-3 3.60801 -0.484629 3 1.15377 3C2.79216 3 2.93402 4.0987 2.93402 5.45426Z" fill="#CCC5B9"/>
<path d="M23 10.1217C23 12.0211 17.4863 17 15.6381 17C13.79 17 8.03595 13.5608 12.9208 10.7407C12.9208 8.84135 15.0167 4 16.8648 4C18.7129 4 23 8.2223 23 10.1217Z" fill="#EB5E28"/>
<path d="M7 -1.42857C7 0.34663 -1.80732 5 -4.75943 5C-7.71154 5 -6.897 0.989487 -6.897 -0.785714C-6.897 -2.56092 -4.50384 -4 -1.55174 -4C1.40037 -4 7 -3.20377 7 -1.42857Z" fill="#EB5E28"/>
<path d="M21 5.30186C21 9.12268 17.1037 5.30186 13.7815 5.30186C10.4593 5.30186 9 5.88247 9 2.06165C9 -1.75918 10.4593 -3 13.7815 -3C17.1037 -3 21 1.48103 21 5.30186Z" fill="#6C645B"/>
</g>
</g>
<path fill-rule="evenodd" clip-rule="evenodd" d="M5.66667 2H3V4.31152H5.77752V4.31193H8.61111C9.56226 4.31193 10.3333 5.07592 10.3333 6.01835C10.3333 6.96078 9.56226 7.72477 8.61111 7.72477H5.66667V5.41244H3V14H5.66667V10.0367H9C11.2091 10.0367 13 8.26227 13 6.07339V5.9633C13 3.77443 11.2091 2 9 2H5.66667Z" fill="#FFFCF2"/>
</g>
<defs>
<filter id="filter0_f_239_2605" x="-13" y="-10" width="42" height="37" filterUnits="userSpaceOnUse" color-interpolation-filters="sRGB">
<feFlood flood-opacity="0" result="BackgroundImageFix"/>
<feBlend mode="normal" in="SourceGraphic" in2="BackgroundImageFix" result="shape"/>
<feGaussianBlur stdDeviation="3" result="effect1_foregroundBlur_239_2605"/>
</filter>
<clipPath id="clip0_239_2605">
<rect width="16" height="16" fill="white"/>
</clipPath>
</defs>
</svg>
